<svg id="Layer_5" enable-background="new 0 0 64 64" height="512" viewBox="0 0 64 64" width="512" xmlns="http://www.w3.org/2000/svg"><g><path d="m15 10c0-2.757-2.243-5-5-5s-5 2.243-5 5 2.243 5 5 5 5-2.243 5-5zm-5 3c-1.654 0-3-1.346-3-3s1.346-3 3-3 3 1.346 3 3-1.346 3-3 3z"/><path d="m50.05 11.051 1.414 1.414c.945-.944 2.201-1.465 3.536-1.465s2.591.521 3.536 1.465l1.414-1.414c-1.323-1.322-3.08-2.051-4.95-2.051s-3.627.729-4.95 2.051z"/><path d="m47.222 8.222 1.414 1.414c3.51-3.51 9.219-3.51 12.729 0l1.414-1.414c-4.29-4.289-11.268-4.289-15.557 0z"/><path d="m13 40h6v-6h-6zm2-4h2v2h-2z"/><path d="m13 48h6v-6h-6zm2-4h2v2h-2z"/><path d="m21 40h6v-6h-6zm2-4h2v2h-2z"/><path d="m37 40h6v-6h-6zm2-4h2v2h-2z"/><path d="m51 34h-6v6h6zm-2 4h-2v-2h2z"/><path d="m54 26h-21v-2h23v-5.184c1.161-.414 2-1.514 2-2.816 0-1.654-1.346-3-3-3s-3 1.346-3 3c0 1.302.839 2.402 2 2.816v3.184h-21v-3h8v-18h-18v18h8v3h-20v-3h1.701l.48-1.321 1.273.596 3.82-3.82-.595-1.273 1.321-.481v-5.402l-1.321-.479.595-1.273-3.82-3.82-1.273.596-.48-1.323h-5.402l-.48 1.321-1.273-.595-3.82 3.82.595 1.273-1.321.48v5.402l1.321.479-.595 1.273 3.82 3.82 1.273-.596.48 1.323h1.701v5h22v2h-21c-2.757 0-5 2.243-5 5v20c0 2.757 2.243 5 5 5h15.002c.006 1.484.493 2.955 1.377 4.146l2.118 2.854h15.003l2.1-2.8c.903-1.204 1.4-2.695 1.4-4.2h7c2.757 0 5-2.243 5-5v-20c0-2.757-2.243-5-5-5zm1-11c.551 0 1 .448 1 1s-.449 1-1 1-1-.448-1-1 .449-1 1-1zm-24-12h2v2h-2zm-6 0h4v4h6v-4h4v14h-14zm-16.598 13.177-.204-.443-1.031-.425-1.198.56-1.838-1.839.562-1.201-.447-1.077-1.246-.453v-2.598l.823-.3.447-.212.423-1.019-.562-1.2 1.837-1.838 1.2.56 1.08-.445.453-1.247h2.599l.299.823.203.442 1.031.426 1.2-.56 1.837 1.838-.562 1.201.447 1.077 1.245.454v2.598l-.823.3-.447.212-.423 1.019.562 1.201-1.837 1.838-1.198-.56-1.081.445-.454 1.246h-2.598zm36.598 39.823c0 1.074-.355 2.14-1 3l-1.5 2h-12.997l-1.518-2.045c-.635-.856-.985-1.915-.985-2.98v-10.017c1.103.001 2 .898 2 2.001v4.999 2h2v-2-4.999-10.959c0-.552.449-1 1-1s1 .448 1 1v8 5h2v-5c0-.552.449-1 1-1s1 .448 1 1v5h2v-5c0-.552.449-1 1-1s1 .448 1 1v2 3h2v-3c0-.552.449-1 1-1s1 .448 1 1zm-1-12c-.395 0-.77.081-1.116.22-.345-1.275-1.501-2.22-2.884-2.22-.771 0-1.468.301-2 .78-.532-.48-1.229-.78-2-.78-.352 0-.686.072-1 .184v-5.184c0-1.654-1.346-3-3-3s-3 1.346-3 3v7.515c-.591-.345-1.268-.557-2-.557-1.103 0-2 .897-2 2v4.042h-14v-18h42v18h-6v-3c0-1.654-1.346-3-3-3zm13 7c0 1.654-1.346 3-3 3h-7v-2h6c1.103 0 2-.897 2-2v-18c0-1.103-.897-2-2-2h-42c-1.103 0-2 .897-2 2v18c0 1.103.897 2 2 2h14v2h-15c-1.654 0-3-1.346-3-3v-20c0-1.654 1.346-3 3-3h44c1.654 0 3 1.346 3 3z"/></g></svg>